<svg width="106" height="23" viewBox="0 0 106 23" fill="none" xmlns="http://www.w3.org/2000/svg">
<path d="M8.94141 18.2812C3.92578 18.2812 0.878906 15 0.878906 9.53906C0.878906 4.08984 3.98438 0.796875 8.84766 0.796875C12.0117 0.796875 14.4609 2.20312 15.6211 4.64062C15.8555 5.08594 15.9727 5.54297 15.9727 5.96484C15.9727 6.89062 15.3516 7.48828 14.4141 7.48828C13.6172 7.48828 13.1133 7.13672 12.7266 6.31641C11.9531 4.59375 10.5703 3.72656 8.88281 3.72656C6.21094 3.72656 4.48828 5.96484 4.48828 9.52734C4.48828 13.1367 6.1875 15.3633 8.89453 15.3633C10.6758 15.3633 12.0117 14.5547 12.7734 12.8555C13.1367 12.0586 13.582 11.7422 14.332 11.7422C15.3281 11.7422 15.9844 12.375 15.9844 13.3125C15.9844 13.7109 15.8906 14.0859 15.7148 14.4961C14.6602 16.8398 12.1406 18.2812 8.94141 18.2812ZM23.9883 18.2695C20.1914 18.2695 17.7656 15.832 17.7656 11.707C17.7656 7.64062 20.2266 5.16797 23.9883 5.16797C27.75 5.16797 30.2109 7.62891 30.2109 11.707C30.2109 15.8438 27.7852 18.2695 23.9883 18.2695ZM23.9883 15.6562C25.6641 15.6562 26.7305 14.2383 26.7305 11.7188C26.7305 9.22266 25.6523 7.78125 23.9883 7.78125C22.3242 7.78125 21.2344 9.22266 21.2344 11.7188C21.2344 14.2383 22.3008 15.6562 23.9883 15.6562ZM33.6914 18.2461C32.6719 18.2461 31.9805 17.625 31.9805 16.4648V6.92578C31.9805 5.77734 32.6602 5.17969 33.6328 5.17969C34.6055 5.17969 35.2852 5.77734 35.2852 6.92578V7.71094H35.3555C35.8828 6.19922 37.2305 5.20312 38.9414 5.20312C40.7578 5.20312 42.0234 6.14062 42.4453 7.78125H42.5156C43.0781 6.19922 44.5781 5.20312 46.418 5.20312C48.8789 5.20312 50.5312 6.89062 50.5312 9.42188V16.4648C50.5312 17.625 49.8281 18.2461 48.8086 18.2461C47.8008 18.2461 47.1094 17.625 47.1094 16.4648V10.2773C47.1094 8.82422 46.3828 8.02734 45.0586 8.02734C43.7578 8.02734 42.9023 8.97656 42.9023 10.3711V16.4648C42.9023 17.625 42.2695 18.2461 41.25 18.2461C40.2422 18.2461 39.6094 17.625 39.6094 16.4648V10.1719C39.6094 8.82422 38.8477 8.02734 37.582 8.02734C36.2812 8.02734 35.4023 9.01172 35.4023 10.418V16.4648C35.4023 17.625 34.6992 18.2461 33.6914 18.2461ZM54.4102 22.4766C53.4141 22.4766 52.6992 21.8672 52.6992 20.6953V6.9375C52.6992 5.78906 53.4023 5.17969 54.3867 5.17969C55.3711 5.17969 56.0742 5.78906 56.0742 6.94922V7.62891H56.1445C56.8242 6.15234 58.2188 5.23828 60.0352 5.23828C63.2227 5.23828 65.1797 7.66406 65.1797 11.7188C65.1797 15.7617 63.2344 18.1992 60.0938 18.1992C58.2656 18.1992 56.8594 17.3086 56.1914 15.8906H56.1211V20.6953C56.1211 21.8672 55.418 22.4766 54.4102 22.4766ZM58.8867 15.4453C60.5977 15.4453 61.6758 14.0039 61.6758 11.7188C61.6758 9.44531 60.5977 7.98047 58.8867 7.98047C57.2109 7.98047 56.1094 9.46875 56.1094 11.7188C56.1094 13.9922 57.2109 15.4453 58.8867 15.4453ZM68.7422 18.2461C67.7461 18.2461 67.0312 17.6367 67.0312 16.4648V2.625C67.0312 1.45312 67.7461 0.832031 68.7422 0.832031C69.75 0.832031 70.4531 1.45312 70.4531 2.625V16.4648C70.4531 17.6367 69.75 18.2461 68.7422 18.2461ZM78.5391 18.2695C74.6133 18.2695 72.3047 15.8438 72.3047 11.7773C72.3047 7.73438 74.6602 5.16797 78.375 5.16797C81.9375 5.16797 84.3281 7.60547 84.3281 11.0156C84.3281 11.9648 83.7891 12.5039 82.8398 12.5039H75.668V12.6562C75.668 14.5195 76.793 15.7383 78.5273 15.7383C79.7812 15.7383 80.6016 15.3164 81.5273 14.2266C81.8906 13.8516 82.1953 13.7227 82.6406 13.7227C83.3789 13.7227 83.9766 14.1914 83.9766 14.9766C83.9766 15.2461 83.8945 15.5273 83.7422 15.8086C82.9102 17.3555 80.9648 18.2695 78.5391 18.2695ZM75.7031 10.4062H81.0352C80.9648 8.76562 79.9102 7.69922 78.4102 7.69922C76.9102 7.69922 75.8203 8.80078 75.7031 10.4062ZM87.0117 14.7891V8.01562H86.3555C85.5469 8.01562 85.0312 7.52344 85.0312 6.72656C85.0312 5.92969 85.5469 5.4375 86.3555 5.4375H87.0117V4.04297C87.0117 2.94141 87.6562 2.26172 88.7227 2.26172C89.7891 2.26172 90.4336 2.94141 90.4336 4.04297V5.4375H91.6406C92.4492 5.4375 92.9531 5.94141 92.9531 6.72656C92.9531 7.51172 92.4492 8.01562 91.6406 8.01562H90.4336V14.0273C90.4336 14.918 90.7383 15.293 91.4766 15.3516L91.6992 15.375C92.543 15.4688 93 15.8203 93 16.6172C93 17.625 92.0156 18.1406 90.5742 18.1406H90.457C88.1719 18.1406 87.0117 17.0039 87.0117 14.7891ZM100.219 18.2695C96.293 18.2695 93.9844 15.8438 93.9844 11.7773C93.9844 7.73438 96.3398 5.16797 100.055 5.16797C103.617 5.16797 106.008 7.60547 106.008 11.0156C106.008 11.9648 105.469 12.5039 104.52 12.5039H97.3477V12.6562C97.3477 14.5195 98.4727 15.7383 100.207 15.7383C101.461 15.7383 102.281 15.3164 103.207 14.2266C103.57 13.8516 103.875 13.7227 104.32 13.7227C105.059 13.7227 105.656 14.1914 105.656 14.9766C105.656 15.2461 105.574 15.5273 105.422 15.8086C104.59 17.3555 102.645 18.2695 100.219 18.2695ZM97.3828 10.4062H102.715C102.645 8.76562 101.59 7.69922 100.09 7.69922C98.5898 7.69922 97.5 8.80078 97.3828 10.4062Z" fill="#111827"/>
</svg>
