<svg width="100" height="23" viewBox="0 0 100 23" fill="none" xmlns="http://www.w3.org/2000/svg">
<path d="M2.5625 18.2461C1.46094 18.2461 0.792969 17.5664 0.792969 16.4062V2.92969C0.792969 1.76953 1.44922 1.08984 2.5625 1.08984H7.71875C11.6094 1.08984 13.8359 3.14062 13.8359 6.48047C13.8359 8.58984 12.793 10.3945 10.9297 11.1914L13.3672 15.4102C13.6602 15.9141 13.7422 16.2188 13.7422 16.6289C13.7422 17.5664 12.9922 18.2461 11.9609 18.2461C11.1172 18.2461 10.7305 17.9414 10.1562 16.9102L7.34375 11.8125H4.33203V16.4062C4.33203 17.5664 3.67578 18.2461 2.5625 18.2461ZM4.33203 9.24609H7.37891C9.16016 9.24609 10.2031 8.22656 10.2031 6.55078C10.2031 4.91016 9.10156 3.85547 7.34375 3.85547H4.33203V9.24609ZM17.6445 3.87891C16.6133 3.87891 15.8164 3.09375 15.8164 2.10938C15.8164 1.11328 16.6133 0.339844 17.6445 0.339844C18.6758 0.339844 19.4727 1.11328 19.4727 2.10938C19.4727 3.09375 18.6758 3.87891 17.6445 3.87891ZM17.6445 18.2461C16.5781 18.2461 15.9336 17.5781 15.9336 16.4648V6.97266C15.9336 5.85938 16.5781 5.17969 17.6445 5.17969C18.6992 5.17969 19.3555 5.85938 19.3555 6.97266V16.4648C19.3555 17.5781 18.6992 18.2461 17.6445 18.2461ZM23.3516 18.2461C22.3555 18.2461 21.6406 17.6367 21.6406 16.4648V6.90234C21.6406 5.83594 22.2617 5.17969 23.293 5.17969C24.3242 5.17969 25.0039 5.83594 25.0039 6.91406V7.61719H25.0742C25.7422 6.05859 27.0078 5.20312 28.9414 5.20312C31.7305 5.20312 33.3008 6.96094 33.3008 9.90234V16.4648C33.3008 17.6367 32.5859 18.2461 31.5898 18.2461C30.582 18.2461 29.8789 17.6367 29.8789 16.4648V10.6172C29.8789 8.97656 29.1055 8.03906 27.5703 8.03906C26.0352 8.03906 25.0625 9.16406 25.0625 10.793V16.4648C25.0625 17.6367 24.3594 18.2461 23.3516 18.2461ZM40.5898 18.2695C37.707 18.2695 35.7852 17.2383 35.1875 15.7617C35.1055 15.5391 35.0586 15.3164 35.0586 15.1289C35.0586 14.3438 35.6445 13.8164 36.4414 13.8164C36.9922 13.8164 37.4609 14.0625 37.9297 14.5898C38.5977 15.4688 39.3711 15.8672 40.6719 15.8672C41.9141 15.8672 42.7227 15.3516 42.7227 14.5195C42.7227 13.8398 42.2891 13.4766 41.0586 13.207L38.9492 12.7617C36.4883 12.2344 35.2461 10.9805 35.2461 9.11719C35.2461 6.71484 37.3203 5.16797 40.5781 5.16797C43.1797 5.16797 45.0898 6.35156 45.5 7.76953C45.5469 7.94531 45.582 8.10938 45.582 8.27344C45.582 8.96484 45.1484 9.44531 44.2695 9.44531C43.8242 9.44531 43.332 9.28125 43.0273 8.91797C42.4297 8.15625 41.75 7.57031 40.5195 7.57031C39.3594 7.57031 38.5508 8.12109 38.5508 8.92969C38.5508 9.58594 39.043 10.0195 40.2969 10.2891L42.3711 10.7344C45.043 11.2969 46.1445 12.2812 46.1445 14.1562C46.1445 16.6523 43.9062 18.2695 40.5898 18.2695ZM49.6133 3.87891C48.582 3.87891 47.7852 3.09375 47.7852 2.10938C47.7852 1.11328 48.582 0.339844 49.6133 0.339844C50.6445 0.339844 51.4414 1.11328 51.4414 2.10938C51.4414 3.09375 50.6445 3.87891 49.6133 3.87891ZM49.6133 18.2461C48.5469 18.2461 47.9023 17.5781 47.9023 16.4648V6.97266C47.9023 5.85938 48.5469 5.17969 49.6133 5.17969C50.668 5.17969 51.3242 5.85938 51.3242 6.97266V16.4648C51.3242 17.5781 50.668 18.2461 49.6133 18.2461ZM55.3203 18.2461C54.3242 18.2461 53.6094 17.6367 53.6094 16.4648V6.90234C53.6094 5.83594 54.2305 5.17969 55.2617 5.17969C56.293 5.17969 56.9727 5.83594 56.9727 6.91406V7.61719H57.043C57.7109 6.05859 58.9766 5.20312 60.9102 5.20312C63.6992 5.20312 65.2695 6.96094 65.2695 9.90234V16.4648C65.2695 17.6367 64.5547 18.2461 63.5586 18.2461C62.5508 18.2461 61.8477 17.6367 61.8477 16.4648V10.6172C61.8477 8.97656 61.0742 8.03906 59.5391 8.03906C58.0039 8.03906 57.0312 9.16406 57.0312 10.793V16.4648C57.0312 17.6367 56.3281 18.2461 55.3203 18.2461ZM73.0508 22.7227C70.4844 22.7109 68.5742 21.7383 67.7656 20.4141C67.5781 20.0977 67.5078 19.7812 67.5078 19.4648C67.5078 18.75 68.0469 18.2109 68.9023 18.2109C69.3477 18.2109 69.6992 18.3516 70.0859 18.7031C71.0117 19.582 71.9023 20.0625 73.0391 20.0742C74.9141 20.0859 76.0156 19.0547 76.0156 17.4844V15.4805H75.9453C75.3594 16.8281 73.8945 17.7305 72.0781 17.7305C68.9492 17.7305 66.9805 15.3398 66.9805 11.5078C66.9805 7.57031 68.9023 5.23828 72.1367 5.23828C73.9414 5.23828 75.3125 6.1875 75.9688 7.60547H76.0391V6.91406C76.0391 5.75391 76.7773 5.17969 77.7617 5.17969C78.7461 5.17969 79.4609 5.75391 79.4609 6.91406V17.5078C79.4609 20.7773 77.0938 22.7461 73.0508 22.7227ZM73.2383 15.1875C74.9492 15.1875 76.0508 13.8281 76.0508 11.5547C76.0508 9.29297 74.9492 7.83984 73.2383 7.83984C71.5508 7.83984 70.4844 9.26953 70.4844 11.543C70.4844 13.8398 71.5391 15.1875 73.2383 15.1875ZM83.9141 18.1406C82.8594 18.1406 82.0273 17.2969 82.0273 16.2539C82.0273 15.1992 82.8594 14.3672 83.9141 14.3672C84.957 14.3672 85.8008 15.1992 85.8008 16.2539C85.8008 17.2969 84.957 18.1406 83.9141 18.1406ZM90.5938 18.1406C89.5391 18.1406 88.707 17.2969 88.707 16.2539C88.707 15.1992 89.5391 14.3672 90.5938 14.3672C91.6367 14.3672 92.4805 15.1992 92.4805 16.2539C92.4805 17.2969 91.6367 18.1406 90.5938 18.1406ZM97.2734 18.1406C96.2188 18.1406 95.3867 17.2969 95.3867 16.2539C95.3867 15.1992 96.2188 14.3672 97.2734 14.3672C98.3164 14.3672 99.1602 15.1992 99.1602 16.2539C99.1602 17.2969 98.3164 18.1406 97.2734 18.1406Z" fill="#111827"/>
</svg>
