<svg width="107" height="23" viewBox="0 0 107 23" fill="none" xmlns="http://www.w3.org/2000/svg">
<path d="M6.59375 18.2812C3.10156 18.2812 0.863281 16.8867 0.183594 15.0352C0.0664062 14.7305 -0.00390625 14.4023 -0.00390625 14.0859C-0.00390625 13.1484 0.640625 12.5273 1.55469 12.5273C2.28125 12.5273 2.76172 12.8086 3.18359 13.5586C3.73438 14.8477 5.05859 15.4336 6.67578 15.4336C8.57422 15.4336 9.86328 14.5195 9.86328 13.2773C9.86328 12.1641 9.06641 11.5312 6.94531 11.0977L5.15234 10.7461C1.77734 10.0781 0.125 8.46094 0.125 5.94141C0.125 2.84766 2.82031 0.796875 6.58203 0.796875C9.67578 0.796875 12.0078 2.09766 12.7578 4.30078C12.8398 4.53516 12.8867 4.78125 12.8867 5.08594C12.8867 5.92969 12.2773 6.50391 11.375 6.50391C10.5781 6.50391 10.0859 6.1875 9.6875 5.46094C9.125 4.18359 8.03516 3.65625 6.58203 3.65625C4.83594 3.65625 3.67578 4.47656 3.67578 5.71875C3.67578 6.76172 4.48438 7.40625 6.48828 7.80469L8.26953 8.16797C11.8555 8.88281 13.4023 10.3242 13.4023 12.8906C13.4023 16.1953 10.8125 18.2812 6.59375 18.2812ZM21.043 18.2695C17.2461 18.2695 14.8203 15.832 14.8203 11.707C14.8203 7.64062 17.2812 5.16797 21.043 5.16797C24.8047 5.16797 27.2656 7.62891 27.2656 11.707C27.2656 15.8438 24.8398 18.2695 21.043 18.2695ZM21.043 15.6562C22.7188 15.6562 23.7852 14.2383 23.7852 11.7188C23.7852 9.22266 22.707 7.78125 21.043 7.78125C19.3789 7.78125 18.2891 9.22266 18.2891 11.7188C18.2891 14.2383 19.3555 15.6562 21.043 15.6562ZM32.75 18.1992C30.3594 18.1992 28.543 16.6523 28.543 14.3906C28.543 12.1055 30.3008 10.7812 33.4414 10.5938L36.6055 10.4062V9.57422C36.6055 8.40234 35.7852 7.72266 34.4961 7.72266C33.4531 7.72266 32.8203 8.0625 32.0586 9.04688C31.6836 9.46875 31.25 9.67969 30.6992 9.67969C29.8672 9.67969 29.2695 9.14062 29.2695 8.36719C29.2695 8.09766 29.3281 7.85156 29.4453 7.59375C30.0312 6.09375 32.0469 5.16797 34.6484 5.16797C37.8711 5.16797 39.9688 6.83203 39.9688 9.36328V16.5234C39.9688 17.6602 39.2773 18.2461 38.3047 18.2461C37.3789 18.2461 36.7344 17.7305 36.6641 16.7227V16.0781H36.5938C35.8906 17.4141 34.3203 18.1992 32.75 18.1992ZM33.875 15.7266C35.375 15.7266 36.6055 14.7539 36.6055 13.3945V12.4805L33.957 12.6445C32.6797 12.7383 31.9531 13.3125 31.9531 14.2031C31.9531 15.1406 32.7266 15.7266 33.875 15.7266ZM43.9766 18.2461C42.9805 18.2461 42.2656 17.6367 42.2656 16.4648V2.625C42.2656 1.45312 42.9805 0.832031 43.9766 0.832031C44.9844 0.832031 45.6875 1.45312 45.6875 2.625V10.418H45.7344L50.2812 5.85938C50.7383 5.37891 51.125 5.17969 51.6406 5.17969C52.5195 5.17969 53.1641 5.82422 53.1641 6.66797C53.1641 7.18359 53.0117 7.5 52.5195 7.95703L49.3203 10.9805L52.8242 15.4453C53.1992 15.9492 53.3047 16.2539 53.3047 16.6992C53.3047 17.6133 52.6367 18.2461 51.6758 18.2461C50.9492 18.2461 50.5391 17.9883 50 17.1797L46.7773 12.9141L45.6875 13.9219V16.4648C45.6875 17.6367 44.9844 18.2461 43.9766 18.2461ZM56.8672 3.87891C55.8359 3.87891 55.0391 3.09375 55.0391 2.10938C55.0391 1.11328 55.8359 0.339844 56.8672 0.339844C57.8984 0.339844 58.6953 1.11328 58.6953 2.10938C58.6953 3.09375 57.8984 3.87891 56.8672 3.87891ZM56.8672 18.2461C55.8008 18.2461 55.1562 17.5781 55.1562 16.4648V6.97266C55.1562 5.85938 55.8008 5.17969 56.8672 5.17969C57.9219 5.17969 58.5781 5.85938 58.5781 6.97266V16.4648C58.5781 17.5781 57.9219 18.2461 56.8672 18.2461ZM62.5742 18.2461C61.5781 18.2461 60.8633 17.6367 60.8633 16.4648V6.90234C60.8633 5.83594 61.4844 5.17969 62.5156 5.17969C63.5469 5.17969 64.2266 5.83594 64.2266 6.91406V7.61719H64.2969C64.9648 6.05859 66.2305 5.20312 68.1641 5.20312C70.9531 5.20312 72.5234 6.96094 72.5234 9.90234V16.4648C72.5234 17.6367 71.8086 18.2461 70.8125 18.2461C69.8047 18.2461 69.1016 17.6367 69.1016 16.4648V10.6172C69.1016 8.97656 68.3281 8.03906 66.793 8.03906C65.2578 8.03906 64.2852 9.16406 64.2852 10.793V16.4648C64.2852 17.6367 63.582 18.2461 62.5742 18.2461ZM80.3047 22.7227C77.7383 22.7109 75.8281 21.7383 75.0195 20.4141C74.832 20.0977 74.7617 19.7812 74.7617 19.4648C74.7617 18.75 75.3008 18.2109 76.1562 18.2109C76.6016 18.2109 76.9531 18.3516 77.3398 18.7031C78.2656 19.582 79.1562 20.0625 80.293 20.0742C82.168 20.0859 83.2695 19.0547 83.2695 17.4844V15.4805H83.1992C82.6133 16.8281 81.1484 17.7305 79.332 17.7305C76.2031 17.7305 74.2344 15.3398 74.2344 11.5078C74.2344 7.57031 76.1562 5.23828 79.3906 5.23828C81.1953 5.23828 82.5664 6.1875 83.2227 7.60547H83.293V6.91406C83.293 5.75391 84.0312 5.17969 85.0156 5.17969C86 5.17969 86.7148 5.75391 86.7148 6.91406V17.5078C86.7148 20.7773 84.3477 22.7461 80.3047 22.7227ZM80.4922 15.1875C82.2031 15.1875 83.3047 13.8281 83.3047 11.5547C83.3047 9.29297 82.2031 7.83984 80.4922 7.83984C78.8047 7.83984 77.7383 9.26953 77.7383 11.543C77.7383 13.8398 78.793 15.1875 80.4922 15.1875ZM91.168 18.1406C90.1133 18.1406 89.2812 17.2969 89.2812 16.2539C89.2812 15.1992 90.1133 14.3672 91.168 14.3672C92.2109 14.3672 93.0547 15.1992 93.0547 16.2539C93.0547 17.2969 92.2109 18.1406 91.168 18.1406ZM97.8477 18.1406C96.793 18.1406 95.9609 17.2969 95.9609 16.2539C95.9609 15.1992 96.793 14.3672 97.8477 14.3672C98.8906 14.3672 99.7344 15.1992 99.7344 16.2539C99.7344 17.2969 98.8906 18.1406 97.8477 18.1406ZM104.527 18.1406C103.473 18.1406 102.641 17.2969 102.641 16.2539C102.641 15.1992 103.473 14.3672 104.527 14.3672C105.57 14.3672 106.414 15.1992 106.414 16.2539C106.414 17.2969 105.57 18.1406 104.527 18.1406Z" fill="#111827"/>
</svg>
