<svg width="115" height="23" viewBox="0 0 115 23" fill="none" xmlns="http://www.w3.org/2000/svg">
<path d="M6.59375 18.2812C3.10156 18.2812 0.863281 16.8867 0.183594 15.0352C0.0664062 14.7305 -0.00390625 14.4023 -0.00390625 14.0859C-0.00390625 13.1484 0.640625 12.5273 1.55469 12.5273C2.28125 12.5273 2.76172 12.8086 3.18359 13.5586C3.73438 14.8477 5.05859 15.4336 6.67578 15.4336C8.57422 15.4336 9.86328 14.5195 9.86328 13.2773C9.86328 12.1641 9.06641 11.5312 6.94531 11.0977L5.15234 10.7461C1.77734 10.0781 0.125 8.46094 0.125 5.94141C0.125 2.84766 2.82031 0.796875 6.58203 0.796875C9.67578 0.796875 12.0078 2.09766 12.7578 4.30078C12.8398 4.53516 12.8867 4.78125 12.8867 5.08594C12.8867 5.92969 12.2773 6.50391 11.375 6.50391C10.5781 6.50391 10.0859 6.1875 9.6875 5.46094C9.125 4.18359 8.03516 3.65625 6.58203 3.65625C4.83594 3.65625 3.67578 4.47656 3.67578 5.71875C3.67578 6.76172 4.48438 7.40625 6.48828 7.80469L8.26953 8.16797C11.8555 8.88281 13.4023 10.3242 13.4023 12.8906C13.4023 16.1953 10.8125 18.2812 6.59375 18.2812ZM16.9883 22.4766C15.9922 22.4766 15.2773 21.8672 15.2773 20.6953V6.9375C15.2773 5.78906 15.9805 5.17969 16.9648 5.17969C17.9492 5.17969 18.6523 5.78906 18.6523 6.94922V7.62891H18.7227C19.4023 6.15234 20.7969 5.23828 22.6133 5.23828C25.8008 5.23828 27.7578 7.66406 27.7578 11.7188C27.7578 15.7617 25.8125 18.1992 22.6719 18.1992C20.8438 18.1992 19.4375 17.3086 18.7695 15.8906H18.6992V20.6953C18.6992 21.8672 17.9961 22.4766 16.9883 22.4766ZM21.4648 15.4453C23.1758 15.4453 24.2539 14.0039 24.2539 11.7188C24.2539 9.44531 23.1758 7.98047 21.4648 7.98047C19.7891 7.98047 18.6875 9.46875 18.6875 11.7188C18.6875 13.9922 19.7891 15.4453 21.4648 15.4453ZM31.2969 3.87891C30.2656 3.87891 29.4688 3.09375 29.4688 2.10938C29.4688 1.11328 30.2656 0.339844 31.2969 0.339844C32.3281 0.339844 33.125 1.11328 33.125 2.10938C33.125 3.09375 32.3281 3.87891 31.2969 3.87891ZM31.2969 18.2461C30.2305 18.2461 29.5859 17.5781 29.5859 16.4648V6.97266C29.5859 5.85938 30.2305 5.17969 31.2969 5.17969C32.3516 5.17969 33.0078 5.85938 33.0078 6.97266V16.4648C33.0078 17.5781 32.3516 18.2461 31.2969 18.2461ZM37.0039 18.2461C36.0078 18.2461 35.293 17.6367 35.293 16.4648V6.90234C35.293 5.83594 35.9141 5.17969 36.9453 5.17969C37.9766 5.17969 38.6562 5.83594 38.6562 6.91406V7.61719H38.7266C39.3945 6.05859 40.6602 5.20312 42.5938 5.20312C45.3828 5.20312 46.9531 6.96094 46.9531 9.90234V16.4648C46.9531 17.6367 46.2383 18.2461 45.2422 18.2461C44.2344 18.2461 43.5312 17.6367 43.5312 16.4648V10.6172C43.5312 8.97656 42.7578 8.03906 41.2227 8.03906C39.6875 8.03906 38.7148 9.16406 38.7148 10.793V16.4648C38.7148 17.6367 38.0117 18.2461 37.0039 18.2461ZM50.832 18.2461C49.8359 18.2461 49.1211 17.6367 49.1211 16.4648V6.90234C49.1211 5.83594 49.7422 5.17969 50.7734 5.17969C51.8047 5.17969 52.4844 5.83594 52.4844 6.91406V7.61719H52.5547C53.2227 6.05859 54.4883 5.20312 56.4219 5.20312C59.2109 5.20312 60.7812 6.96094 60.7812 9.90234V16.4648C60.7812 17.6367 60.0664 18.2461 59.0703 18.2461C58.0625 18.2461 57.3594 17.6367 57.3594 16.4648V10.6172C57.3594 8.97656 56.5859 8.03906 55.0508 8.03906C53.5156 8.03906 52.543 9.16406 52.543 10.793V16.4648C52.543 17.6367 51.8398 18.2461 50.832 18.2461ZM64.7188 3.87891C63.6875 3.87891 62.8906 3.09375 62.8906 2.10938C62.8906 1.11328 63.6875 0.339844 64.7188 0.339844C65.75 0.339844 66.5469 1.11328 66.5469 2.10938C66.5469 3.09375 65.75 3.87891 64.7188 3.87891ZM64.7188 18.2461C63.6523 18.2461 63.0078 17.5781 63.0078 16.4648V6.97266C63.0078 5.85938 63.6523 5.17969 64.7188 5.17969C65.7734 5.17969 66.4297 5.85938 66.4297 6.97266V16.4648C66.4297 17.5781 65.7734 18.2461 64.7188 18.2461ZM70.4258 18.2461C69.4297 18.2461 68.7148 17.6367 68.7148 16.4648V6.90234C68.7148 5.83594 69.3359 5.17969 70.3672 5.17969C71.3984 5.17969 72.0781 5.83594 72.0781 6.91406V7.61719H72.1484C72.8164 6.05859 74.082 5.20312 76.0156 5.20312C78.8047 5.20312 80.375 6.96094 80.375 9.90234V16.4648C80.375 17.6367 79.6602 18.2461 78.6641 18.2461C77.6562 18.2461 76.9531 17.6367 76.9531 16.4648V10.6172C76.9531 8.97656 76.1797 8.03906 74.6445 8.03906C73.1094 8.03906 72.1367 9.16406 72.1367 10.793V16.4648C72.1367 17.6367 71.4336 18.2461 70.4258 18.2461ZM88.1562 22.7227C85.5898 22.7109 83.6797 21.7383 82.8711 20.4141C82.6836 20.0977 82.6133 19.7812 82.6133 19.4648C82.6133 18.75 83.1523 18.2109 84.0078 18.2109C84.4531 18.2109 84.8047 18.3516 85.1914 18.7031C86.1172 19.582 87.0078 20.0625 88.1445 20.0742C90.0195 20.0859 91.1211 19.0547 91.1211 17.4844V15.4805H91.0508C90.4648 16.8281 89 17.7305 87.1836 17.7305C84.0547 17.7305 82.0859 15.3398 82.0859 11.5078C82.0859 7.57031 84.0078 5.23828 87.2422 5.23828C89.0469 5.23828 90.418 6.1875 91.0742 7.60547H91.1445V6.91406C91.1445 5.75391 91.8828 5.17969 92.8672 5.17969C93.8516 5.17969 94.5664 5.75391 94.5664 6.91406V17.5078C94.5664 20.7773 92.1992 22.7461 88.1562 22.7227ZM88.3438 15.1875C90.0547 15.1875 91.1562 13.8281 91.1562 11.5547C91.1562 9.29297 90.0547 7.83984 88.3438 7.83984C86.6562 7.83984 85.5898 9.26953 85.5898 11.543C85.5898 13.8398 86.6445 15.1875 88.3438 15.1875ZM99.0195 18.1406C97.9648 18.1406 97.1328 17.2969 97.1328 16.2539C97.1328 15.1992 97.9648 14.3672 99.0195 14.3672C100.062 14.3672 100.906 15.1992 100.906 16.2539C100.906 17.2969 100.062 18.1406 99.0195 18.1406ZM105.699 18.1406C104.645 18.1406 103.812 17.2969 103.812 16.2539C103.812 15.1992 104.645 14.3672 105.699 14.3672C106.742 14.3672 107.586 15.1992 107.586 16.2539C107.586 17.2969 106.742 18.1406 105.699 18.1406ZM112.379 18.1406C111.324 18.1406 110.492 17.2969 110.492 16.2539C110.492 15.1992 111.324 14.3672 112.379 14.3672C113.422 14.3672 114.266 15.1992 114.266 16.2539C114.266 17.2969 113.422 18.1406 112.379 18.1406Z" fill="#111827"/>
</svg>
