<svg width="114" height="23" viewBox="0 0 114 23" fill="none" xmlns="http://www.w3.org/2000/svg">
<path d="M6.12891 18.2227C5.01562 18.2227 4.40625 17.6836 4.05469 16.418L0.527344 3.62109C0.410156 3.1875 0.339844 2.76562 0.339844 2.44922C0.339844 1.46484 1.00781 0.855469 2.08594 0.855469C3.01172 0.855469 3.57422 1.37109 3.78516 2.37891L6.31641 13.3359H6.41016L9.25781 2.4375C9.52734 1.33594 10.0898 0.855469 11.0742 0.855469C12.0352 0.855469 12.6211 1.37109 12.8789 2.41406L15.7266 13.3359H15.8203L18.3516 2.37891C18.5742 1.35938 19.1367 0.855469 20.0625 0.855469C21.1406 0.855469 21.8086 1.46484 21.8086 2.44922C21.8086 2.75391 21.7383 3.17578 21.6211 3.62109L18.082 16.4414C17.7305 17.6836 17.1211 18.2227 16.0312 18.2227C14.8945 18.2227 14.2734 17.6953 13.9336 16.4297L11.1211 6.44531H11.0156L8.21484 16.4297C7.875 17.6719 7.24219 18.2227 6.12891 18.2227ZM25.8984 18.1992C23.5078 18.1992 21.6914 16.6523 21.6914 14.3906C21.6914 12.1055 23.4492 10.7812 26.5898 10.5938L29.7539 10.4062V9.57422C29.7539 8.40234 28.9336 7.72266 27.6445 7.72266C26.6016 7.72266 25.9688 8.0625 25.207 9.04688C24.832 9.46875 24.3984 9.67969 23.8477 9.67969C23.0156 9.67969 22.418 9.14062 22.418 8.36719C22.418 8.09766 22.4766 7.85156 22.5938 7.59375C23.1797 6.09375 25.1953 5.16797 27.7969 5.16797C31.0195 5.16797 33.1172 6.83203 33.1172 9.36328V16.5234C33.1172 17.6602 32.4258 18.2461 31.4531 18.2461C30.5273 18.2461 29.8828 17.7305 29.8125 16.7227V16.0781H29.7422C29.0391 17.4141 27.4688 18.1992 25.8984 18.1992ZM27.0234 15.7266C28.5234 15.7266 29.7539 14.7539 29.7539 13.3945V12.4805L27.1055 12.6445C25.8281 12.7383 25.1016 13.3125 25.1016 14.2031C25.1016 15.1406 25.875 15.7266 27.0234 15.7266ZM40.4531 18.2695C37.5703 18.2695 35.6484 17.2383 35.0508 15.7617C34.9688 15.5391 34.9219 15.3164 34.9219 15.1289C34.9219 14.3438 35.5078 13.8164 36.3047 13.8164C36.8555 13.8164 37.3242 14.0625 37.793 14.5898C38.4609 15.4688 39.2344 15.8672 40.5352 15.8672C41.7773 15.8672 42.5859 15.3516 42.5859 14.5195C42.5859 13.8398 42.1523 13.4766 40.9219 13.207L38.8125 12.7617C36.3516 12.2344 35.1094 10.9805 35.1094 9.11719C35.1094 6.71484 37.1836 5.16797 40.4414 5.16797C43.043 5.16797 44.9531 6.35156 45.3633 7.76953C45.4102 7.94531 45.4453 8.10938 45.4453 8.27344C45.4453 8.96484 45.0117 9.44531 44.1328 9.44531C43.6875 9.44531 43.1953 9.28125 42.8906 8.91797C42.293 8.15625 41.6133 7.57031 40.3828 7.57031C39.2227 7.57031 38.4141 8.12109 38.4141 8.92969C38.4141 9.58594 38.9062 10.0195 40.1602 10.2891L42.2344 10.7344C44.9062 11.2969 46.0078 12.2812 46.0078 14.1562C46.0078 16.6523 43.7695 18.2695 40.4531 18.2695ZM49.5 18.2461C48.5039 18.2461 47.7891 17.6367 47.7891 16.4648V2.58984C47.7891 1.48828 48.4219 0.832031 49.4766 0.832031C50.5312 0.832031 51.1523 1.48828 51.1523 2.58984V7.67578H51.2227C51.8906 6.09375 53.2617 5.20312 55.1719 5.20312C57.9609 5.20312 59.5547 7.00781 59.5547 9.91406V16.4648C59.5547 17.6367 58.8516 18.2461 57.8438 18.2461C56.8477 18.2461 56.1328 17.6367 56.1328 16.4648V10.6406C56.1328 9.02344 55.3359 8.03906 53.7773 8.03906C52.1602 8.03906 51.2109 9.17578 51.2109 10.8281V16.4648C51.2109 17.6367 50.5078 18.2461 49.5 18.2461ZM63.5156 3.87891C62.4844 3.87891 61.6875 3.09375 61.6875 2.10938C61.6875 1.11328 62.4844 0.339844 63.5156 0.339844C64.5469 0.339844 65.3438 1.11328 65.3438 2.10938C65.3438 3.09375 64.5469 3.87891 63.5156 3.87891ZM63.5156 18.2461C62.4492 18.2461 61.8047 17.5781 61.8047 16.4648V6.97266C61.8047 5.85938 62.4492 5.17969 63.5156 5.17969C64.5703 5.17969 65.2266 5.85938 65.2266 6.97266V16.4648C65.2266 17.5781 64.5703 18.2461 63.5156 18.2461ZM69.2227 18.2461C68.2266 18.2461 67.5117 17.6367 67.5117 16.4648V6.90234C67.5117 5.83594 68.1328 5.17969 69.1641 5.17969C70.1953 5.17969 70.875 5.83594 70.875 6.91406V7.61719H70.9453C71.6133 6.05859 72.8789 5.20312 74.8125 5.20312C77.6016 5.20312 79.1719 6.96094 79.1719 9.90234V16.4648C79.1719 17.6367 78.457 18.2461 77.4609 18.2461C76.4531 18.2461 75.75 17.6367 75.75 16.4648V10.6172C75.75 8.97656 74.9766 8.03906 73.4414 8.03906C71.9062 8.03906 70.9336 9.16406 70.9336 10.793V16.4648C70.9336 17.6367 70.2305 18.2461 69.2227 18.2461ZM86.9531 22.7227C84.3867 22.7109 82.4766 21.7383 81.668 20.4141C81.4805 20.0977 81.4102 19.7812 81.4102 19.4648C81.4102 18.75 81.9492 18.2109 82.8047 18.2109C83.25 18.2109 83.6016 18.3516 83.9883 18.7031C84.9141 19.582 85.8047 20.0625 86.9414 20.0742C88.8164 20.0859 89.918 19.0547 89.918 17.4844V15.4805H89.8477C89.2617 16.8281 87.7969 17.7305 85.9805 17.7305C82.8516 17.7305 80.8828 15.3398 80.8828 11.5078C80.8828 7.57031 82.8047 5.23828 86.0391 5.23828C87.8438 5.23828 89.2148 6.1875 89.8711 7.60547H89.9414V6.91406C89.9414 5.75391 90.6797 5.17969 91.6641 5.17969C92.6484 5.17969 93.3633 5.75391 93.3633 6.91406V17.5078C93.3633 20.7773 90.9961 22.7461 86.9531 22.7227ZM87.1406 15.1875C88.8516 15.1875 89.9531 13.8281 89.9531 11.5547C89.9531 9.29297 88.8516 7.83984 87.1406 7.83984C85.4531 7.83984 84.3867 9.26953 84.3867 11.543C84.3867 13.8398 85.4414 15.1875 87.1406 15.1875ZM97.8164 18.1406C96.7617 18.1406 95.9297 17.2969 95.9297 16.2539C95.9297 15.1992 96.7617 14.3672 97.8164 14.3672C98.8594 14.3672 99.7031 15.1992 99.7031 16.2539C99.7031 17.2969 98.8594 18.1406 97.8164 18.1406ZM104.496 18.1406C103.441 18.1406 102.609 17.2969 102.609 16.2539C102.609 15.1992 103.441 14.3672 104.496 14.3672C105.539 14.3672 106.383 15.1992 106.383 16.2539C106.383 17.2969 105.539 18.1406 104.496 18.1406ZM111.176 18.1406C110.121 18.1406 109.289 17.2969 109.289 16.2539C109.289 15.1992 110.121 14.3672 111.176 14.3672C112.219 14.3672 113.062 15.1992 113.062 16.2539C113.062 17.2969 112.219 18.1406 111.176 18.1406Z" fill="#111827"/>
</svg>
