<svg width="371" height="405" viewBox="0 0 371 405" fill="none" xmlns="http://www.w3.org/2000/svg">
<g filter="url(#filter0_i_14_41965)">
<rect width="371" height="405" rx="24" fill="#F9FAFB"/>
</g>
<rect x="0.5" y="0.5" width="370" height="404" rx="23.5" stroke="#1F2937"/>
<g filter="url(#filter1_i_14_41965)">
<path d="M0 24C0 10.7452 10.7452 0 24 0H347C360.255 0 371 10.7452 371 24V51H0V24Z" fill="#E5E7EB"/>
</g>
<path d="M0.5 24C0.5 11.0213 11.0213 0.5 24 0.5H347C359.979 0.5 370.5 11.0213 370.5 24V50.5H0.5V24Z" stroke="#1F2937"/>
<circle cx="186" cy="229" r="113.5" fill="white" stroke="#111827"/>
<rect x="90" y="133" width="192" height="192" rx="96" stroke="#E5E7EB" stroke-width="34"/>
<g filter="url(#filter2_i_14_41965)">
<circle cx="186" cy="229" r="93" fill="#F3F4F6"/>
</g>
<circle cx="186" cy="229" r="92.5" stroke="#111827"/>
<line y1="50.5" x2="371" y2="50.5" stroke="#111827"/>
<defs>
<filter id="filter0_i_14_41965" x="0" y="0" width="371" height="405" filterUnits="userSpaceOnUse" color-interpolation-filters="sRGB">
<feFlood flood-opacity="0" result="BackgroundImageFix"/>
<feBlend mode="normal" in="SourceGraphic" in2="BackgroundImageFix" result="shape"/>
<feColorMatrix in="SourceAlpha" type="matrix" values="0 0 0 0 0 0 0 0 0 0 0 0 0 0 0 0 0 0 127 0" result="hardAlpha"/>
<feOffset dx="20"/>
<feComposite in2="hardAlpha" operator="arithmetic" k2="-1" k3="1"/>
<feColorMatrix type="matrix" values="0 0 0 0 0.819608 0 0 0 0 0.835294 0 0 0 0 0.858824 0 0 0 1 0"/>
<feBlend mode="normal" in2="shape" result="effect1_innerShadow_14_41965"/>
</filter>
<filter id="filter1_i_14_41965" x="0" y="0" width="371" height="51" filterUnits="userSpaceOnUse" color-interpolation-filters="sRGB">
<feFlood flood-opacity="0" result="BackgroundImageFix"/>
<feBlend mode="normal" in="SourceGraphic" in2="BackgroundImageFix" result="shape"/>
<feColorMatrix in="SourceAlpha" type="matrix" values="0 0 0 0 0 0 0 0 0 0 0 0 0 0 0 0 0 0 127 0" result="hardAlpha"/>
<feOffset dx="20"/>
<feComposite in2="hardAlpha" operator="arithmetic" k2="-1" k3="1"/>
<feColorMatrix type="matrix" values="0 0 0 0 0.819608 0 0 0 0 0.835294 0 0 0 0 0.858824 0 0 0 1 0"/>
<feBlend mode="normal" in2="shape" result="effect1_innerShadow_14_41965"/>
</filter>
<filter id="filter2_i_14_41965" x="93" y="136" width="186" height="186" filterUnits="userSpaceOnUse" color-interpolation-filters="sRGB">
<feFlood flood-opacity="0" result="BackgroundImageFix"/>
<feBlend mode="normal" in="SourceGraphic" in2="BackgroundImageFix" result="shape"/>
<feColorMatrix in="SourceAlpha" type="matrix" values="0 0 0 0 0 0 0 0 0 0 0 0 0 0 0 0 0 0 127 0" result="hardAlpha"/>
<feOffset dx="20"/>
<feComposite in2="hardAlpha" operator="arithmetic" k2="-1" k3="1"/>
<feColorMatrix type="matrix" values="0 0 0 0 0.898039 0 0 0 0 0.905882 0 0 0 0 0.921569 0 0 0 1 0"/>
<feBlend mode="normal" in2="shape" result="effect1_innerShadow_14_41965"/>
</filter>
</defs>
</svg>
