<svg width="124" height="124" viewBox="0 0 124 124" fill="none" xmlns="http://www.w3.org/2000/svg">
<path d="M37.7222 72.3392C41.7127 81.4155 51.6053 87.8333 61.9978 87.8333C72.3461 87.8333 82.2195 81.3988 86.2446 72.3619" stroke="#1F2937" stroke-width="5" stroke-linecap="round"/>
<path fill-rule="evenodd" clip-rule="evenodd" d="M46.5002 51.6667C49.3536 51.6667 51.6668 49.3535 51.6668 46.5C51.6668 43.6465 49.3536 41.3333 46.5002 41.3333C43.6467 41.3333 41.3335 43.6465 41.3335 46.5C41.3335 49.3535 43.6467 51.6667 46.5002 51.6667Z" fill="#1F2937"/>
<path fill-rule="evenodd" clip-rule="evenodd" d="M77.5002 51.6667C80.3536 51.6667 82.6668 49.3535 82.6668 46.5C82.6668 43.6465 80.3536 41.3333 77.5002 41.3333C74.6467 41.3333 72.3335 43.6465 72.3335 46.5C72.3335 49.3535 74.6467 51.6667 77.5002 51.6667Z" fill="#1F2937"/>
</svg>
